<?xml version="1.0" encoding="UTF-8"?>
<svg width="79px" height="79px" viewBox="0 0 79 79" version="1.1" xmlns="http://www.w3.org/2000/svg" xmlns:xlink="http://www.w3.org/1999/xlink">
    <!-- Generator: Sketch 54.1 (76490) - https://sketchapp.com -->
    <title>Artboard</title>
    <desc>Created with Sketch.</desc>
    <defs>
        <circle id="path-1" cx="23.5" cy="23.5" r="23.5"></circle>
        <filter x="-18.1%" y="-13.8%" width="136.2%" height="136.2%" filterUnits="objectBoundingBox" id="filter-2">
            <feOffset dx="0" dy="2" in="SourceAlpha" result="shadowOffsetOuter1"></feOffset>
            <feGaussianBlur stdDeviation="2.5" in="shadowOffsetOuter1" result="shadowBlurOuter1"></feGaussianBlur>
            <feColorMatrix values="0 0 0 0 0   0 0 0 0 0   0 0 0 0 0  0 0 0 0.152570199 0" type="matrix" in="shadowBlurOuter1"></feColorMatrix>
        </filter>
    </defs>
    <g id="Artboard" stroke="none" stroke-width="1" fill="none" fill-rule="evenodd">
        <g id="Group-6" transform="translate(16.000000, 16.000000)">
            <g id="Oval" fill-rule="nonzero">
                <use fill="black" fill-opacity="1" filter="url(#filter-2)" xlink:href="#path-1"></use>
                <use fill="#50E3C2" xlink:href="#path-1"></use>
            </g>
            <path d="M33.0697674,22.0339426 C33.3281667,22.0339426 33.5478027,22.1253255 33.7286822,22.308094 C33.9095616,22.4908625 34,22.7127924 34,22.9738903 C34,23.2349883 33.9095616,23.4569181 33.7286822,23.6396867 C33.5478027,23.8224552 33.3281667,23.9138381 33.0697674,23.9138381 L24.8527132,23.9138381 L24.8527132,32.0600522 C24.8527132,32.3037436 24.7622748,32.5213219 24.5813953,32.7127937 C24.4005159,32.9042655 24.1808798,33 23.9224806,33 C23.6640814,33 23.4444453,32.9042655 23.2635659,32.7127937 C23.0826864,32.5213219 22.9922481,32.3037436 22.9922481,32.0600522 L22.9922481,23.9138381 L14.9302326,23.9138381 C14.6890599,23.9138381 14.4737305,23.8224552 14.2842377,23.6396867 C14.094745,23.4569181 14,23.2349883 14,22.9738903 C14,22.7127924 14.094745,22.4908625 14.2842377,22.308094 C14.4737305,22.1253255 14.6890599,22.0339426 14.9302326,22.0339426 L22.9922481,22.0339426 L22.9922481,13.9399478 C22.9922481,13.6788499 23.0826864,13.45692 23.2635659,13.2741514 C23.4444453,13.0913829 23.6640814,13 23.9224806,13 C24.1808798,13 24.4005159,13.0913829 24.5813953,13.2741514 C24.7622748,13.45692 24.8527132,13.6788499 24.8527132,13.9399478 L24.8527132,22.0339426 L33.0697674,22.0339426 Z" id="plus---anticon" fill="#FFFFFF"></path>
        </g>
    </g>
</svg>