<?xml version="1.0" encoding="UTF-8"?>
<svg width="35px" height="35px" viewBox="0 0 35 35" version="1.1" xmlns="http://www.w3.org/2000/svg" xmlns:xlink="http://www.w3.org/1999/xlink">
    <!-- Generator: Sketch 54.1 (76490) - https://sketchapp.com -->
    <title>Artboard</title>
    <desc>Created with Sketch.</desc>
    <g id="Artboard" stroke="none" stroke-width="1" fill="none" fill-rule="evenodd">
        <path d="M13.1232166,11.4928 L26,11.4928 L26,13.3296 L13.1232166,13.3296 L13.1232166,11.4928 Z M13.1232166,18.9296 L13.1232166,17.0928 L26,17.0928 L26,18.9296 L13.1232166,18.9296 Z M13.1232166,24.5296 L13.1232166,22.6928 L26,22.6928 L26,24.5296 L13.1232166,24.5296 Z M10.3670558,22.2 C10.7492453,22.2 11.0763065,22.3418652 11.348249,22.6256 C11.6201916,22.9093348 11.7561608,23.2378648 11.7561608,23.6112 C11.7561608,23.9845352 11.6165167,24.309332 11.3372244,24.5856 C11.057932,24.861868 10.7345457,25 10.3670558,25 C9.99956582,25 9.67985436,24.861868 9.4079118,24.5856 C9.13596924,24.309332 9,23.9845352 9,23.6112 C9,23.2378648 9.1322944,22.9093348 9.39688716,22.6256 C9.66147992,22.3418652 9.98486623,22.2 10.3670558,22.2 Z M10.3670558,11 C10.7492453,11 11.0763065,11.138132 11.348249,11.4144 C11.6201916,11.690668 11.7561608,12.0229314 11.7561608,12.4112 C11.7561608,12.7994686 11.6201916,13.1279987 11.348249,13.3968 C11.0763065,13.6656013 10.7492453,13.8 10.3670558,13.8 C9.98486623,13.8 9.66147992,13.6656013 9.39688716,13.3968 C9.1322944,13.1279987 9,12.7994686 9,12.4112 C9,12.0229314 9.1322944,11.690668 9.39688716,11.4144 C9.66147992,11.138132 9.98486623,11 10.3670558,11 Z M10.3670558,16.6 C10.7492453,16.6 11.0763065,16.738132 11.348249,17.0144 C11.6201916,17.290668 11.7561608,17.6229314 11.7561608,18.0112 C11.7561608,18.3994686 11.6201916,18.7279987 11.348249,18.9968 C11.0763065,19.2656013 10.7492453,19.4 10.3670558,19.4 C9.98486623,19.4 9.66147992,19.2656013 9.39688716,18.9968 C9.1322944,18.7279987 9,18.3994686 9,18.0112 C9,17.6229314 9.1322944,17.290668 9.39688716,17.0144 C9.66147992,16.738132 9.98486623,16.6 10.3670558,16.6 Z" id="format_list_bulleted---material" fill="#000000"></path>
    </g>
</svg>