<?xml version="1.0" encoding="UTF-8"?>
<svg width="25px" height="25px" viewBox="0 0 25 25" version="1.1" xmlns="http://www.w3.org/2000/svg" xmlns:xlink="http://www.w3.org/1999/xlink">
    <!-- Generator: Sketch 53.2 (72643) - https://sketchapp.com -->
    <title>icon-voice</title>
    <desc>Created with Sketch.</desc>
    <g id="Page-1" stroke="none" stroke-width="1" fill="none" fill-rule="evenodd">
        <g id="icon-voice">
            <rect id="Rectangle" fill="#FFFFFF" x="0" y="0" width="25" height="25"></rect>
            <path d="M18.1958763,12 L20,12 C20,13.1218005 19.7079067,14.1794822 19.1237113,15.1730769 C18.5566982,16.1185945 17.7792146,16.9078494 16.7912371,17.5408654 C15.8032597,18.1738814 14.7250918,18.5624993 13.556701,18.7067308 L13.556701,22 L11.443299,22 L11.443299,18.7067308 C10.2749082,18.5624993 9.19674034,18.1738814 8.20876289,17.5408654 C7.22078544,16.9078494 6.4433018,16.1185945 5.87628866,15.1730769 C5.2920933,14.1794822 5,13.1218005 5,12 L6.80412371,12 C6.80412371,12.977569 7.07903505,13.8669832 7.62886598,14.6682692 C8.14433247,15.4214781 8.83590631,16.0184273 9.70360825,16.4591346 C10.5713102,16.8998419 11.5034314,17.1201923 12.5,17.1201923 C13.4965686,17.1201923 14.4286898,16.8998419 15.2963918,16.4591346 C16.1640937,16.0184273 16.8556675,15.4214781 17.371134,14.6682692 C17.9209649,13.8669832 18.1958763,12.977569 18.1958763,12 Z M12,15 C11.4719974,15 10.9760023,14.8526681 10.512,14.558 C10.0479977,14.2633319 9.68000136,13.8646692 9.408,13.362 C9.13599864,12.8593308 9,12.3220029 9,11.75 L9,5.25 C9,4.67799714 9.13599864,4.14066918 9.408,3.638 C9.68000136,3.13533082 10.0479977,2.73666814 10.512,2.442 C10.9760023,2.14733186 11.4719974,2 12,2 C12.5280026,2 13.0239977,2.14733186 13.488,2.442 C13.9520023,2.73666814 14.3199986,3.13533082 14.592,3.638 C14.8640014,4.14066918 15,4.67799714 15,5.25 L15,11.75 C15,12.3220029 14.8640014,12.8593308 14.592,13.362 C14.3199986,13.8646692 13.9520023,14.2633319 13.488,14.558 C13.0239977,14.8526681 12.5280026,15 12,15 Z" id="keyboard_voice---material" fill="#000000" fill-rule="nonzero"></path>
        </g>
    </g>
</svg>