<?xml version="1.0" encoding="UTF-8"?>
<svg width="25px" height="25px" viewBox="0 0 25 25" version="1.1" xmlns="http://www.w3.org/2000/svg" xmlns:xlink="http://www.w3.org/1999/xlink">
    <!-- Generator: Sketch 53.2 (72643) - https://sketchapp.com -->
    <title>icon-document</title>
    <desc>Created with Sketch.</desc>
    <g id="Page-1" stroke="none" stroke-width="1" fill="none" fill-rule="evenodd">
        <g id="icon-document">
            <rect id="Rectangle" fill="#FFFFFF" x="0" y="0" width="25" height="25"></rect>
            <path d="M21,9.73510951 L13.7720466,3 L6.53211785,3 C5.31185984,3 4.82933331,3.09318017 4.33127625,3.359544 C3.91079623,3.58441917 3.58441917,3.91079623 3.359544,4.33127625 C3.09318017,4.82933331 3,5.31185984 3,6.53211785 L3,17.4678822 C3,18.6881402 3.09318017,19.1706666 3.359544,19.6687238 C3.58441917,20.0892038 3.91079623,20.4155808 4.33127625,20.640456 C4.82933331,20.9068199 5.31185984,21 6.53211785,21 L17.4678822,21 C18.6881402,21 19.1706666,20.9068199 19.6687238,20.640456 C20.0892038,20.4155808 20.4155808,20.0892038 20.640456,19.6687238 C20.9068199,19.1706666 21,18.6881402 21,17.4678822 L21,9.73510951 Z" id="Rectangle" stroke="#000000" stroke-width="1.575"></path>
            <polyline id="Path-6" stroke="#000000" stroke-width="1.575" stroke-linecap="round" stroke-linejoin="round" points="14 3 14 9 20 9"></polyline>
        </g>
    </g>
</svg>