<?xml version="1.0" encoding="UTF-8"?>
<svg width="35px" height="35px" viewBox="0 0 35 35" version="1.1" xmlns="http://www.w3.org/2000/svg" xmlns:xlink="http://www.w3.org/1999/xlink">
    <!-- Generator: Sketch 54.1 (76490) - https://sketchapp.com -->
    <title>Artboard</title>
    <desc>Created with Sketch.</desc>
    <g id="Artboard" stroke="none" stroke-width="1" fill="none" fill-rule="evenodd">
        <path d="M28,15.362949 C28,15.5784499 27.84375,15.7819786 27.6875,15.9376181 L23.3245192,20.1758034 L24.3581731,26.1619408 C24.3701923,26.2457467 24.3701923,26.3175803 24.3701923,26.4013863 C24.3701923,26.7126654 24.2259615,27 23.8774038,27 C23.7091346,27 23.5408654,26.9401386 23.3966346,26.8563327 L18,24.0308759 L12.6033654,26.8563327 C12.4471154,26.9401386 12.2908654,27 12.1225962,27 C11.7740385,27 11.6177885,26.7126654 11.6177885,26.4013863 C11.6177885,26.3175803 11.6298077,26.2457467 11.6418269,26.1619408 L12.6754808,20.1758034 L8.30048077,15.9376181 C8.15625,15.7819786 8,15.5784499 8,15.362949 C8,15.0037807 8.37259615,14.8601134 8.67307692,14.8122243 L14.7067308,13.9382483 L17.4110577,8.49086326 C17.5192308,8.26339004 17.7235577,8 18,8 C18.2764423,8 18.4807692,8.26339004 18.5889423,8.49086326 L21.2932692,13.9382483 L27.3269231,14.8122243 C27.6153846,14.8601134 28,15.0037807 28,15.362949 Z" id="" fill="#000000" fill-rule="nonzero"></path>
    </g>
</svg>