<?xml version="1.0" encoding="UTF-8"?>
<svg width="35px" height="35px" viewBox="0 0 35 35" version="1.1" xmlns="http://www.w3.org/2000/svg" xmlns:xlink="http://www.w3.org/1999/xlink">
    <!-- Generator: Sketch 54.1 (76490) - https://sketchapp.com -->
    <title>Artboard</title>
    <desc>Created with Sketch.</desc>
    <g id="Artboard" stroke="none" stroke-width="1" fill="none" fill-rule="evenodd">
        <path d="M18,23.1666667 C18.8221195,23.1666667 19.5793235,22.9551132 20.2716346,22.532 C20.9639458,22.1088868 21.5120172,21.5346703 21.9158654,20.8093333 C22.3197136,20.0839964 22.5216346,19.290671 22.5216346,18.4293333 C22.5216346,17.5679957 22.3197136,16.7746703 21.9158654,16.0493333 C21.5120172,15.3239964 20.9639458,14.7497799 20.2716346,14.3266667 C19.5793235,13.9035534 18.8221195,13.692 18,13.692 C17.1778805,13.692 16.4206765,13.9035534 15.7283654,14.3266667 C15.0360542,14.7497799 14.4879828,15.3239964 14.0841346,16.0493333 C13.6802864,16.7746703 13.4783654,17.5679957 13.4783654,18.4293333 C13.4783654,19.290671 13.6802864,20.0839964 14.0841346,20.8093333 C14.4879828,21.5346703 15.0360542,22.1088868 15.7283654,22.532 C16.4206765,22.9551132 17.1778805,23.1666667 18,23.1666667 Z M15.2956731,9 L20.7043269,9 L22.3485577,10.8586667 L25.2259615,10.8586667 C25.7163486,10.8586667 26.1346137,11.0475537 26.4807692,11.4253333 C26.8269248,11.803113 27,12.2488863 27,12.7626667 L27,24.096 C27,24.6097803 26.8269248,25.0555537 26.4807692,25.4333333 C26.1346137,25.811113 25.7163486,26 25.2259615,26 L10.7740385,26 C10.2836514,26 9.86538635,25.811113 9.51923077,25.4333333 C9.17307519,25.0555537 9,24.6097803 9,24.096 L9,12.7626667 C9,12.2488863 9.17307519,11.803113 9.51923077,11.4253333 C9.86538635,11.0475537 10.2836514,10.8586667 10.7740385,10.8586667 L13.6514423,10.8586667 L15.2956731,9 Z M15.1225962,18.4293333 C15.1225962,17.8853306 15.2524025,17.3828912 15.5120192,16.922 C15.7716359,16.4611088 16.121392,16.094668 16.5612981,15.8226667 C17.0012041,15.5506653 17.4807666,15.4146667 18,15.4146667 C18.5192334,15.4146667 18.9987959,15.5506653 19.4387019,15.8226667 C19.878608,16.094668 20.2283641,16.4611088 20.4879808,16.922 C20.7475975,17.3828912 20.8774038,17.8853306 20.8774038,18.4293333 C20.8774038,18.9733361 20.7475975,19.4757755 20.4879808,19.9366667 C20.2283641,20.3975579 19.878608,20.7639986 19.4387019,21.036 C18.9987959,21.3080014 18.5192334,21.444 18,21.444 C17.4807666,21.444 17.0012041,21.3080014 16.5612981,21.036 C16.121392,20.7639986 15.7716359,20.3975579 15.5120192,19.9366667 C15.2524025,19.4757755 15.1225962,18.9733361 15.1225962,18.4293333 Z" id="" fill="#000000" fill-rule="nonzero"></path>
    </g>
</svg>