<?xml version="1.0" encoding="UTF-8"?>
<svg width="35px" height="35px" viewBox="0 0 35 35" version="1.1" xmlns="http://www.w3.org/2000/svg" xmlns:xlink="http://www.w3.org/1999/xlink">
    <!-- Generator: Sketch 54.1 (76490) - https://sketchapp.com -->
    <title>Artboard</title>
    <desc>Created with Sketch.</desc>
    <g id="Artboard" stroke="none" stroke-width="1" fill="none" fill-rule="evenodd">
        <path d="M14.746,16.075 L18.085,16.075 C18.6730029,16.075 19.1559981,15.9350014 19.534,15.655 C19.9120019,15.3749986 20.101,14.9200031 20.101,14.29 C20.101,13.9399982 20.0380006,13.6530011 19.912,13.429 C19.7859994,13.2049989 19.6180011,13.0300006 19.408,12.904 C19.1979989,12.7779994 18.9565014,12.6905002 18.6835,12.6415 C18.4104986,12.5924998 18.1270015,12.568 17.833,12.568 L14.746,12.568 L14.746,16.075 Z M11.449,10.006 L18.505,10.006 C19.2190036,10.006 19.8699971,10.0689994 20.458,10.195 C21.0460029,10.3210006 21.5499979,10.5274986 21.97,10.8145 C22.3900021,11.1015014 22.7154988,11.4829976 22.9465,11.959 C23.1775012,12.4350024 23.293,13.0229965 23.293,13.723 C23.293,14.4790038 23.1215017,15.1089975 22.7785,15.613 C22.4354983,16.1170025 21.9280034,16.5299984 21.256,16.852 C22.1800046,17.1180013 22.8694977,17.5834967 23.3245,18.2485 C23.7795023,18.9135033 24.007,19.7149953 24.007,20.653 C24.007,21.4090038 23.8600015,22.0634972 23.566,22.6165 C23.2719985,23.1695028 22.8765025,23.6209982 22.3795,23.971 C21.8824975,24.3210018 21.3155032,24.5799992 20.6785,24.748 C20.0414968,24.9160008 19.3870034,25 18.715,25 L11.449,25 L11.449,10.006 Z M14.746,22.438 L18.274,22.438 C18.5960016,22.438 18.9039985,22.4065003 19.198,22.3435 C19.4920015,22.2804997 19.7509989,22.1755007 19.975,22.0285 C20.1990011,21.8814993 20.3774993,21.6820013 20.5105,21.43 C20.6435007,21.1779987 20.71,20.856002 20.71,20.464 C20.71,19.6939962 20.4930022,19.1445016 20.059,18.8155 C19.6249978,18.4864984 19.0510036,18.322 18.337,18.322 L14.746,18.322 L14.746,22.438 Z" id="B" fill="#000000" fill-rule="nonzero"></path>
    </g>
</svg>