<?xml version="1.0" encoding="UTF-8"?>
<svg width="18px" height="18px" viewBox="0 0 18 18" version="1.1" xmlns="http://www.w3.org/2000/svg" xmlns:xlink="http://www.w3.org/1999/xlink">
    <!-- Generator: Sketch 54.1 (76490) - https://sketchapp.com -->
    <title>Artboard</title>
    <desc>Created with Sketch.</desc>
    <g id="Artboard" stroke="none" stroke-width="1" fill="none" fill-rule="evenodd" fill-opacity="0.3">
        <path d="M8.68,13.7346939 L8.68,11.1836735 L12,14.5714286 L8.68,18 L8.68,15.4489796 C7.479994,15.4489796 6.3600052,15.1360576 5.32,14.5102041 C4.3066616,13.9115616 3.5066696,13.0952433 2.92,12.0612245 C2.3066636,10.9999947 2,9.85714898 2,8.63265306 C2,7.97958857 2.0933324,7.34354051 2.28,6.7244898 C2.4666676,6.10543908 2.726665,5.5306149 3.06,5 L4.26,6.24489796 C3.8733314,6.96599 3.68,7.76190041 3.68,8.63265306 C3.68,9.55782776 3.9033311,10.4115607 4.35,11.1938776 C4.7966689,11.9761944 5.4033295,12.5952358 6.17,13.0510204 C6.9366705,13.506805 7.7733288,13.7346939 8.68,13.7346939 Z M9.32,2.55102041 C10.520006,2.55102041 11.6399948,2.86394245 12.68,3.48979592 C13.6933384,4.08843837 14.4933304,4.90475673 15.08,5.93877551 C15.6933364,7.00000531 16,8.14285102 16,9.36734694 C16,10.0204114 15.9100009,10.6598608 15.73,11.2857143 C15.5499991,11.9115678 15.2866684,12.4829906 14.94,13 L13.74,11.755102 C14.1266686,11.03401 14.32,10.2380996 14.32,9.36734694 C14.32,8.44217224 14.0966689,7.58843929 13.65,6.80612245 C13.2033311,6.02380561 12.5966705,5.40476418 11.83,4.94897959 C11.0633295,4.493195 10.2266712,4.26530612 9.32,4.26530612 L9.32,6.81632653 L6,3.42857143 L9.32,0 L9.32,2.55102041 Z" id="" fill="#212121" fill-rule="nonzero"></path>
    </g>
</svg>