<?xml version="1.0" encoding="UTF-8"?>
<svg width="35px" height="35px" viewBox="0 0 35 35" version="1.1" xmlns="http://www.w3.org/2000/svg" xmlns:xlink="http://www.w3.org/1999/xlink">
    <!-- Generator: Sketch 54.1 (76490) - https://sketchapp.com -->
    <title>Artboard</title>
    <desc>Created with Sketch.</desc>
    <g id="Artboard" stroke="none" stroke-width="1" fill="none" fill-rule="evenodd">
        <g id="U" transform="translate(11.000000, 11.434000)" fill="#000000" fill-rule="nonzero">
            <path d="M1.292,6.21724894e-14 L3.667,6.21724894e-14 L3.667,7.904 C3.667,8.36000228 3.68916644,8.82233099 3.7335,9.291 C3.77783355,9.75966901 3.90449895,10.1808315 4.1135,10.5545 C4.32250104,10.9281685 4.63916454,11.2353321 5.0635,11.476 C5.48783545,11.7166679 6.08632947,11.837 6.859,11.837 C7.63167053,11.837 8.23016454,11.7166679 8.6545,11.476 C9.07883545,11.2353321 9.39549895,10.9281685 9.6045,10.5545 C9.81350104,10.1808315 9.94016644,9.75966901 9.9845,9.291 C10.0288336,8.82233099 10.051,8.36000228 10.051,7.904 L10.051,6.21724894e-14 L12.426,6.21724894e-14 L12.426,8.683 C12.426,9.55700437 12.2930013,10.3169968 12.027,10.963 C11.7609987,11.6090032 11.3841691,12.1504978 10.8965,12.5875 C10.4088309,13.0245022 9.82300342,13.3506656 9.139,13.566 C8.45499658,13.7813344 7.69500418,13.889 6.859,13.889 C6.02299582,13.889 5.26300342,13.7813344 4.579,13.566 C3.89499658,13.3506656 3.3091691,13.0245022 2.8215,12.5875 C2.33383089,12.1504978 1.95700133,11.6090032 1.691,10.963 C1.42499867,10.3169968 1.292,9.55700437 1.292,8.683 L1.292,6.21724894e-14 Z"></path>
            <polygon id="Decoration" points="-4.26325641e-14 14.991 -4.26325641e-14 14.041 12.446 14.041 12.446 14.991"></polygon>
        </g>
    </g>
</svg>