<?xml version="1.0" encoding="UTF-8"?>
<svg width="35px" height="35px" viewBox="0 0 35 35" version="1.1" xmlns="http://www.w3.org/2000/svg" xmlns:xlink="http://www.w3.org/1999/xlink">
    <!-- Generator: Sketch 54.1 (76490) - https://sketchapp.com -->
    <title>Artboard</title>
    <desc>Created with Sketch.</desc>
    <g id="Artboard" stroke="none" stroke-width="1" fill="none" fill-rule="evenodd">
        <path d="M24.1073278,10.745614 C24.3997091,11.0185199 24.6189918,11.3036048 24.7651824,11.6008772 C24.9113731,11.8981496 24.9893403,12.1978542 24.9990863,12.5 C25.0088323,12.821639 24.9406111,13.1359634 24.7944204,13.4429825 C24.6482297,13.7500015 24.43382,14.0497061 24.1511847,14.3421053 C24.0147401,14.4883048 23.4689699,15.0341083 22.5138576,15.9795322 C21.5587453,16.924956 20.5281166,17.945901 19.4219407,19.0423977 C18.3157647,20.1388944 17.2997549,21.1452196 16.3738808,22.0614035 C15.4480066,22.9775874 14.9412199,23.4795317 14.8535056,23.5672515 C14.8242674,23.5964914 14.7925933,23.6208576 14.7584821,23.6403509 C14.724371,23.6598442 14.6878238,23.6744639 14.6488397,23.6842105 C14.5123951,23.7231971 14.2248911,23.8133521 13.7863191,23.9546784 C13.3477471,24.0960046 12.8969994,24.2397654 12.4340623,24.3859649 C11.9711252,24.5321645 11.5544881,24.6661787 11.1841385,24.7880117 C10.8137888,24.9098447 10.6237438,24.9707602 10.6139978,24.9707602 C10.5945057,24.9805069 10.5725774,24.9878167 10.5482123,24.9926901 C10.5238472,24.9975634 10.497046,25 10.4678078,25 C10.4093316,25 10.3508562,24.9878169 10.2923799,24.9634503 C10.2339037,24.9390837 10.1851742,24.9025344 10.14619,24.8538012 C10.0779677,24.7953213 10.0341112,24.7222227 10.0146191,24.6345029 C9.99512698,24.5467832 9.99512698,24.4590648 10.0146191,24.371345 C10.0243651,24.3615984 10.0828405,24.1788517 10.190047,23.8230994 C10.2972535,23.4673471 10.4215136,23.0555579 10.5628313,22.5877193 C10.7041489,22.1198807 10.8405915,21.6642322 10.9721631,21.2207602 C11.1037347,20.7772882 11.1938842,20.4580906 11.2426144,20.2631579 C11.2621065,20.2241713 11.2815983,20.187622 11.3010904,20.1535088 C11.3205825,20.1193955 11.3449472,20.0877194 11.3741854,20.0584795 L15.906073,15.5263158 C17.0463601,14.3859592 18.1013535,13.3284649 19.0710849,12.3538012 C20.0408162,11.3791374 20.5597853,10.8625734 20.6280076,10.8040936 C20.725468,10.7066272 20.9350048,10.5482467 21.2566242,10.3289474 C21.5782437,10.109648 21.9729525,10 22.4407626,10 C22.74289,10 23.0328304,10.0633522 23.3105927,10.1900585 C23.5883549,10.3167648 23.8539306,10.5019481 24.1073278,10.745614 Z M20.4818176,12.2953216 C20.0237536,12.743667 19.4389997,13.3235832 18.7275385,14.0350877 C18.0160774,14.7465923 17.2826986,15.4824523 16.5273802,16.2426901 C15.7720618,17.0029278 15.0484289,17.7290414 14.3564598,18.4210526 L12.7045137,20.0730994 C12.8994345,20.1510725 13.1162808,20.2631572 13.3550588,20.4093567 C13.5938369,20.5555563 13.8350479,20.7504861 14.078699,20.994152 C14.2736198,21.1988314 14.4368636,21.4059444 14.5684352,21.6154971 C14.7000068,21.8250498 14.8047752,22.017543 14.8827435,22.1929825 C15.2920774,21.7836237 15.8402841,21.2402568 16.5273802,20.5628655 C17.2144763,19.8854742 17.9332362,19.1739803 18.6836816,18.4283626 C19.4341269,17.6827448 20.1626328,16.9590678 20.8692209,16.2573099 C21.5758091,15.555552 22.1581265,14.9805091 22.6161905,14.5321637 C22.6064445,14.4541906 22.5504056,14.2714439 22.4480721,13.9839181 C22.3457387,13.6963923 22.1483842,13.4064342 21.8560029,13.1140351 C21.5636216,12.8313826 21.2907365,12.6315795 21.0373394,12.5146199 C20.7839422,12.3976602 20.5987702,12.3245615 20.4818176,12.2953216 Z M12.061278,20.8625731 C11.9540715,21.2231987 11.8054466,21.7007768 11.6153987,22.2953216 C11.4253509,22.8898665 11.2621071,23.4064306 11.1256625,23.8450292 C11.5837265,23.6988297 12.114878,23.5233928 12.7191327,23.3187135 C13.3233874,23.1140341 13.7863175,22.9580902 14.1079369,22.8508772 C14.0592067,22.7046776 13.9812395,22.5243675 13.8740331,22.3099415 C13.7668266,22.0955155 13.6108922,21.8859659 13.4062253,21.6812865 C13.1333361,21.4083807 12.8750698,21.2110143 12.6314187,21.0891813 C12.3877676,20.9673483 12.1977226,20.891813 12.061278,20.8625731 Z M23.4640921,13.6695906 C23.659013,13.4746579 23.8052014,13.2797281 23.9026619,13.0847953 C24.0001223,12.8898626 24.0488518,12.7046792 24.0488518,12.5292398 C24.0488518,12.3538003 23.9976858,12.1734902 23.8953524,11.9883041 C23.7930189,11.803118 23.644394,11.6179346 23.4494731,11.4327485 C23.2935364,11.2768023 23.1302926,11.1598444 22.9597369,11.0818713 C22.7891811,11.0038982 22.6161914,10.9649123 22.4407626,10.9649123 C22.1386353,10.9649123 21.8779325,11.0428842 21.6586465,11.1988304 C21.4393605,11.3547766 21.3199733,11.4473683 21.3004812,11.4766082 L21.2273863,11.5497076 C21.4125611,11.6276807 21.6172249,11.7373287 21.8413839,11.878655 C22.0655429,12.0199812 22.2945715,12.2076012 22.5284766,12.4415205 C22.7526356,12.6656931 22.9329347,12.8947357 23.0693793,13.128655 C23.2058239,13.3625743 23.3081558,13.5769971 23.3763781,13.7719298 C23.3958702,13.7524365 23.4129255,13.7329436 23.4275446,13.7134503 C23.4421637,13.693957 23.454346,13.6793373 23.4640921,13.6695906 Z" id="pencil---simple-line-icons" fill="#000000"></path>
    </g>
</svg>