<?xml version="1.0" encoding="UTF-8"?>
<svg width="35px" height="35px" viewBox="0 0 35 35" version="1.1" xmlns="http://www.w3.org/2000/svg" xmlns:xlink="http://www.w3.org/1999/xlink">
    <!-- Generator: Sketch 54.1 (76490) - https://sketchapp.com -->
    <title>Artboard</title>
    <desc>Created with Sketch.</desc>
    <g id="Artboard" stroke="none" stroke-width="1" fill="none" fill-rule="evenodd">
        <path d="M22.5216346,13 C23.329331,13 24.0793235,13.2009549 24.7716346,13.6028708 C25.4639458,14.0047867 26.0084115,14.5502358 26.4050481,15.2392344 C26.8016847,15.9282331 27,16.6818141 27,17.5 C27,18.3181859 26.8016847,19.0717669 26.4050481,19.7607656 C26.0084115,20.4497642 25.4639458,20.9952133 24.7716346,21.3971292 C24.0793235,21.7990451 23.329331,22 22.5216346,22 L18.8870192,22 L18.8870192,20.277512 L22.5216346,20.277512 C23.0120217,20.277512 23.4735555,20.1519151 23.90625,19.9007177 C24.3389445,19.6495203 24.6814891,19.3086146 24.9338942,18.8779904 C25.1862993,18.4473663 25.3125,17.9880407 25.3125,17.5 C25.3125,17.0119593 25.1862993,16.5526337 24.9338942,16.1220096 C24.6814891,15.6913854 24.3389445,15.3504797 23.90625,15.0992823 C23.4735555,14.8480849 23.0120217,14.722488 22.5216346,14.722488 L18.8870192,14.722488 L18.8870192,13 L22.5216346,13 Z M14.4086538,18.3827751 L14.4086538,16.6172249 L21.5913462,16.6172249 L21.5913462,18.3827751 L14.4086538,18.3827751 Z M10.6875,17.5 C10.6875,17.9880407 10.8137007,18.4473663 11.0661058,18.8779904 C11.3185109,19.3086146 11.6610555,19.6495203 12.09375,19.9007177 C12.5264445,20.1519151 12.9879783,20.277512 13.4783654,20.277512 L17.1129808,20.277512 L17.1129808,22 L13.4783654,22 C12.670669,22 11.9206765,21.7990451 11.2283654,21.3971292 C10.5360542,20.9952133 9.99158852,20.4497642 9.59495192,19.7607656 C9.19831532,19.0717669 9,18.3181859 9,17.5 C9,16.6818141 9.19831532,15.9282331 9.59495192,15.2392344 C9.99158852,14.5502358 10.5360542,14.0047867 11.2283654,13.6028708 C11.9206765,13.2009549 12.670669,13 13.4783654,13 L17.1129808,13 L17.1129808,14.722488 L13.4783654,14.722488 C12.9879783,14.722488 12.5264445,14.8480849 12.09375,15.0992823 C11.6610555,15.3504797 11.3185109,15.6913854 11.0661058,16.1220096 C10.8137007,16.5526337 10.6875,17.0119593 10.6875,17.5 Z" id="link---material" fill="#000000" transform="translate(18.000000, 17.500000) rotate(-37.000000) translate(-18.000000, -17.500000) "></path>
    </g>
</svg>