<?xml version="1.0" encoding="UTF-8"?>
<svg width="35px" height="35px" viewBox="0 0 35 35" version="1.1" xmlns="http://www.w3.org/2000/svg" xmlns:xlink="http://www.w3.org/1999/xlink">
    <!-- Generator: Sketch 54.1 (76490) - https://sketchapp.com -->
    <title>Artboard</title>
    <desc>Created with Sketch.</desc>
    <g id="Artboard" stroke="none" stroke-width="1" fill="none" fill-rule="evenodd">
        <path d="M19.1782227,24.6206055 L19.0654297,25 L13.34375,25 L13.4873047,24.6206055 C14.0615263,24.6069335 14.440917,24.5590824 14.6254883,24.4770508 C14.926271,24.3608393 15.1484368,24.2001963 15.2919922,23.9951172 C15.5175793,23.6738265 15.7499988,23.0996135 15.9892578,22.2724609 L18.4091797,13.8847656 C18.6142588,13.1874965 18.7167969,12.6611346 18.7167969,12.3056641 C18.7167969,12.1279288 18.6723637,11.9775397 18.5834961,11.8544922 C18.4946285,11.7314447 18.35962,11.6374515 18.1784668,11.5725098 C17.9973135,11.507568 17.6435573,11.4750977 17.1171875,11.4750977 L17.2402344,11.0957031 L22.6132812,11.0957031 L22.5004883,11.4750977 C22.0629861,11.4682617 21.7382823,11.5161128 21.5263672,11.6186523 C21.2187485,11.7553718 20.9846199,11.950194 20.8239746,12.203125 C20.6633293,12.456056 20.4565442,13.0165972 20.2036133,13.8847656 L17.7939453,22.2724609 C17.5751942,23.0449257 17.4658203,23.5371083 17.4658203,23.7490234 C17.4658203,23.9199227 17.5085445,24.0651849 17.5939941,24.1848145 C17.6794438,24.304444 17.8161612,24.3967282 18.0041504,24.4616699 C18.1921396,24.5266117 18.5834931,24.5795896 19.1782227,24.6206055 Z" id="I" fill="#000000" fill-rule="nonzero"></path>
    </g>
</svg>