<?xml version="1.0" encoding="UTF-8"?>
<svg width="26px" height="26px" viewBox="0 0 26 26" version="1.1" xmlns="http://www.w3.org/2000/svg" xmlns:xlink="http://www.w3.org/1999/xlink">
    <!-- Generator: Sketch 53.2 (72643) - https://sketchapp.com -->
    <title>Group 3</title>
    <desc>Created with Sketch.</desc>
    <g id="Final" stroke="none" stroke-width="1" fill="none" fill-rule="evenodd">
        <g id="Main-Tab" transform="translate(-214.000000, -775.000000)">
            <g id="Group-5" transform="translate(0.000000, 766.000000)">
                <g id="Group-3" transform="translate(214.000000, 9.000000)">
                    <path d="M5.38415892,0.7875 C3.79612871,0.7875 3.16817405,0.908763639 2.52000812,1.25540657 C1.9728001,1.54805662 1.54805662,1.9728001 1.25540657,2.52000812 C0.908763639,3.16817405 0.7875,3.79612871 0.7875,5.38415892 L0.7875,19.8158411 C0.7875,21.4038713 0.908763639,22.0318259 1.25540657,22.6799919 C1.54805662,23.2271999 1.9728001,23.6519434 2.52000812,23.9445934 C3.16817405,24.2912364 3.79612871,24.4125 5.38415892,24.4125 L19.8158411,24.4125 C21.4038713,24.4125 22.0318259,24.2912364 22.6799919,23.9445934 C23.2271999,23.6519434 23.6519434,23.2271999 23.9445934,22.6799919 C24.2912364,22.0318259 24.4125,21.4038713 24.4125,19.8158411 L24.4125,5.38415892 C24.4125,3.79612871 24.2912364,3.16817405 23.9445934,2.52000812 C23.6519434,1.9728001 23.2271999,1.54805662 22.6799919,1.25540657 C22.0318259,0.908763639 21.4038713,0.7875 19.8158411,0.7875 L5.38415892,0.7875 Z" id="Rectangle" stroke="#000000" stroke-width="1.575" fill-rule="nonzero"></path>
                    <text id="31" font-family="CircularStd-Medium, Circular Std" font-size="11.55" font-weight="400" letter-spacing="-0.03490666" fill="#000000">
                        <tspan x="7.35" y="18.35">31</tspan>
                    </text>
                    <polygon id="Rectangle" fill="#000000" fill-rule="nonzero" points="1.05 1.05 24.15 1.05 24.15 7.35 1.05 7.35"></polygon>
                </g>
            </g>
        </g>
    </g>
</svg>