<?xml version="1.0" encoding="UTF-8"?>
<svg width="25px" height="25px" viewBox="0 0 25 25" version="1.1" xmlns="http://www.w3.org/2000/svg" xmlns:xlink="http://www.w3.org/1999/xlink">
    <!-- Generator: Sketch 53.2 (72643) - https://sketchapp.com -->
    <title>Group 3</title>
    <desc>Created with Sketch.</desc>
    <g id="Final" stroke="none" stroke-width="1" fill="none" fill-rule="evenodd">
        <g id="Main-Tab" transform="translate(-130.000000, -775.000000)" fill-rule="nonzero" stroke="#000000" stroke-width="1.575">
            <g id="Group-5" transform="translate(0.000000, 766.000000)">
                <g id="Group-3" transform="translate(130.000000, 9.000000)">
                    <path d="M5.38415892,0.7875 C3.79612871,0.7875 3.16817405,0.908763639 2.52000812,1.25540657 C1.9728001,1.54805662 1.54805662,1.9728001 1.25540657,2.52000812 C0.908763639,3.16817405 0.7875,3.79612871 0.7875,5.38415892 L0.7875,19.6158411 C0.7875,21.2038713 0.908763639,21.8318259 1.25540657,22.4799919 C1.54805662,23.0271999 1.9728001,23.4519434 2.52000812,23.7445934 C3.16817405,24.0912364 3.79612871,24.2125 5.38415892,24.2125 L19.6158411,24.2125 C21.2038713,24.2125 21.8318259,24.0912364 22.4799919,23.7445934 C23.0271999,23.4519434 23.4519434,23.0271999 23.7445934,22.4799919 C24.0912364,21.8318259 24.2125,21.2038713 24.2125,19.6158411 L24.2125,5.38415892 C24.2125,3.79612871 24.0912364,3.16817405 23.7445934,2.52000812 C23.4519434,1.9728001 23.0271999,1.54805662 22.4799919,1.25540657 C21.8318259,0.908763639 21.2038713,0.7875 19.6158411,0.7875 L5.38415892,0.7875 Z" id="Rectangle"></path>
                    <polyline id="Path-2" stroke-linecap="round" stroke-linejoin="round" points="5.20833333 8.05436995 7.12602375 10.4166667 11.4583333 6.25"></polyline>
                    <polyline id="Path-2" stroke-linecap="round" stroke-linejoin="round" points="5.20833333 15.3460366 7.12602375 17.7083333 11.4583333 13.5416667"></polyline>
                    <path d="M13.7201871,8.24402889 L19.3887182,8.24402889" id="Path-5" stroke-linecap="round" stroke-linejoin="round"></path>
                    <path d="M13.7201871,15.5356956 L19.3887182,15.5356956" id="Path-5" stroke-linecap="round" stroke-linejoin="round"></path>
                </g>
            </g>
        </g>
    </g>
</svg>